# MagicaVoxel @ Ephtracy

# group
o 

# material
mtllib coin.mtl
usemtl palette

# normals
vn -1 0 0
vn 1 0 0
vn 0 0 1
vn 0 0 -1
vn 0 -1 0
vn 0 1 0

# texcoords
vt 0.0136719 0.5
vt 0.0175781 0.5
vt 0.0214844 0.5
vt 0.958984 0.5

# verts
v -0.5 0.3 0
v -0.5 0.3 -0.1
v -0.5 0.7 0
v -0.5 0.7 -0.1
v -0.4 0.2 0
v -0.4 0.2 -0.1
v -0.4 0.3 0
v -0.4 0.3 -0.1
v -0.4 0.7 0
v -0.4 0.7 -0.1
v -0.4 0.8 0
v -0.4 0.8 -0.1
v -0.3 0.1 0
v -0.3 0.1 -0.1
v -0.3 0.2 0
v -0.3 0.2 -0.1
v -0.3 0.8 0
v -0.3 0.8 -0.1
v -0.3 0.9 0
v -0.3 0.9 -0.1
v -0.2 0 0
v -0.2 0 -0.1
v -0.2 0.1 0
v -0.2 0.1 -0.1
v -0.2 0.9 0
v -0.2 0.9 -0.1
v -0.2 1 0
v -0.2 1 -0.1
v 0.2 0 0
v 0.2 0 -0.1
v 0.2 0.1 0
v 0.2 0.1 -0.1
v 0.2 0.9 0
v 0.2 0.9 -0.1
v 0.2 1 0
v 0.2 1 -0.1
v 0.3 0.1 0
v 0.3 0.1 -0.1
v 0.3 0.2 0
v 0.3 0.2 -0.1
v 0.3 0.8 0
v 0.3 0.8 -0.1
v 0.3 0.9 0
v 0.3 0.9 -0.1
v 0.4 0.2 0
v 0.4 0.2 -0.1
v 0.4 0.3 0
v 0.4 0.3 -0.1
v 0.4 0.7 0
v 0.4 0.7 -0.1
v 0.4 0.8 0
v 0.4 0.8 -0.1
v 0.5 0.3 0
v 0.5 0.3 -0.1
v 0.5 0.7 0
v 0.5 0.7 -0.1
v -0.5 0.3 0
v -0.5 0.7 0
v -0.4 0.2 0
v -0.4 0.3 0
v -0.4 0.7 0
v -0.4 0.8 0
v -0.3 0.1 0
v -0.3 0.2 0
v -0.3 0.3 0
v -0.3 0.7 0
v -0.3 0.8 0
v -0.3 0.9 0
v -0.2 0 0
v -0.2 0.1 0
v -0.2 0.2 0
v -0.2 0.3 0
v -0.2 0.7 0
v -0.2 0.8 0
v -0.2 0.9 0
v -0.2 1 0
v -0.1 0.2 0
v -0.1 0.3 0
v -0.1 0.7 0
v -0.1 0.8 0
v 0 0.4 0
v 0 0.5 0
v 0.1 0 0
v 0.1 0.1 0
v 0.1 0.2 0
v 0.1 0.3 0
v 0.1 0.4 0
v 0.1 0.7 0
v 0.1 0.8 0
v 0.1 0.9 0
v 0.1 1 0
v 0.2 0 0
v 0.2 0.1 0
v 0.2 0.2 0
v 0.2 0.3 0
v 0.2 0.5 0
v 0.2 0.8 0
v 0.2 0.9 0
v 0.2 1 0
v 0.3 0.1 0
v 0.3 0.2 0
v 0.3 0.3 0
v 0.3 0.7 0
v 0.3 0.8 0
v 0.3 0.9 0
v 0.4 0.2 0
v 0.4 0.3 0
v 0.4 0.7 0
v 0.4 0.8 0
v 0.5 0.3 0
v 0.5 0.7 0
v -0.5 0.3 -0.1
v -0.5 0.7 -0.1
v -0.4 0.2 -0.1
v -0.4 0.3 -0.1
v -0.4 0.7 -0.1
v -0.4 0.8 -0.1
v -0.3 0.1 -0.1
v -0.3 0.2 -0.1
v -0.3 0.3 -0.1
v -0.3 0.7 -0.1
v -0.3 0.8 -0.1
v -0.3 0.9 -0.1
v -0.2 0 -0.1
v -0.2 0.1 -0.1
v -0.2 0.2 -0.1
v -0.2 0.3 -0.1
v -0.2 0.7 -0.1
v -0.2 0.8 -0.1
v -0.2 0.9 -0.1
v -0.2 1 -0.1
v -0.1 0.2 -0.1
v -0.1 0.3 -0.1
v -0.1 0.7 -0.1
v -0.1 0.8 -0.1
v 0 0.4 -0.1
v 0 0.5 -0.1
v 0.1 0 -0.1
v 0.1 0.1 -0.1
v 0.1 0.2 -0.1
v 0.1 0.3 -0.1
v 0.1 0.4 -0.1
v 0.1 0.7 -0.1
v 0.1 0.8 -0.1
v 0.1 0.9 -0.1
v 0.1 1 -0.1
v 0.2 0 -0.1
v 0.2 0.1 -0.1
v 0.2 0.2 -0.1
v 0.2 0.3 -0.1
v 0.2 0.5 -0.1
v 0.2 0.8 -0.1
v 0.2 0.9 -0.1
v 0.2 1 -0.1
v 0.3 0.1 -0.1
v 0.3 0.2 -0.1
v 0.3 0.3 -0.1
v 0.3 0.7 -0.1
v 0.3 0.8 -0.1
v 0.3 0.9 -0.1
v 0.4 0.2 -0.1
v 0.4 0.3 -0.1
v 0.4 0.7 -0.1
v 0.4 0.8 -0.1
v 0.5 0.3 -0.1
v 0.5 0.7 -0.1
v -0.2 0 0
v 0.1 0 0
v 0.2 0 0
v -0.2 0 -0.1
v 0.1 0 -0.1
v 0.2 0 -0.1
v -0.3 0.1 0
v -0.2 0.1 0
v 0.2 0.1 0
v 0.3 0.1 0
v -0.3 0.1 -0.1
v -0.2 0.1 -0.1
v 0.2 0.1 -0.1
v 0.3 0.1 -0.1
v -0.4 0.2 0
v -0.3 0.2 0
v 0.3 0.2 0
v 0.4 0.2 0
v -0.4 0.2 -0.1
v -0.3 0.2 -0.1
v 0.3 0.2 -0.1
v 0.4 0.2 -0.1
v -0.5 0.3 0
v -0.4 0.3 0
v 0.4 0.3 0
v 0.5 0.3 0
v -0.5 0.3 -0.1
v -0.4 0.3 -0.1
v 0.4 0.3 -0.1
v 0.5 0.3 -0.1
v -0.5 0.7 0
v -0.4 0.7 0
v 0.4 0.7 0
v 0.5 0.7 0
v -0.5 0.7 -0.1
v -0.4 0.7 -0.1
v 0.4 0.7 -0.1
v 0.5 0.7 -0.1
v -0.4 0.8 0
v -0.3 0.8 0
v 0.3 0.8 0
v 0.4 0.8 0
v -0.4 0.8 -0.1
v -0.3 0.8 -0.1
v 0.3 0.8 -0.1
v 0.4 0.8 -0.1
v -0.3 0.9 0
v -0.2 0.9 0
v 0.2 0.9 0
v 0.3 0.9 0
v -0.3 0.9 -0.1
v -0.2 0.9 -0.1
v 0.2 0.9 -0.1
v 0.3 0.9 -0.1
v -0.2 1 0
v 0.1 1 0
v 0.2 1 0
v -0.2 1 -0.1
v 0.1 1 -0.1
v 0.2 1 -0.1

# faces
f 3/2/1 2/2/1 1/2/1
f 4/2/1 2/2/1 3/2/1
f 7/2/1 6/2/1 5/2/1
f 8/2/1 6/2/1 7/2/1
f 11/2/1 10/2/1 9/2/1
f 12/2/1 10/2/1 11/2/1
f 15/2/1 14/2/1 13/2/1
f 16/2/1 14/2/1 15/2/1
f 19/2/1 18/2/1 17/2/1
f 20/2/1 18/2/1 19/2/1
f 23/2/1 22/2/1 21/2/1
f 24/2/1 22/2/1 23/2/1
f 27/2/1 26/2/1 25/2/1
f 28/2/1 26/2/1 27/2/1
f 29/3/2 30/3/2 31/3/2
f 31/3/2 30/3/2 32/3/2
f 33/3/2 34/3/2 35/3/2
f 35/3/2 34/3/2 36/3/2
f 37/3/2 38/3/2 39/3/2
f 39/3/2 38/3/2 40/3/2
f 41/3/2 42/3/2 43/3/2
f 43/3/2 42/3/2 44/3/2
f 45/3/2 46/3/2 47/3/2
f 47/3/2 46/3/2 48/3/2
f 49/3/2 50/3/2 51/3/2
f 51/3/2 50/3/2 52/3/2
f 53/3/2 54/3/2 55/3/2
f 55/3/2 54/3/2 56/3/2
f 60/2/3 58/2/3 57/2/3
f 61/2/3 58/2/3 60/2/3
f 64/2/3 60/2/3 59/2/3
f 65/1/3 61/1/3 60/1/3
f 65/2/3 60/2/3 64/2/3
f 66/2/3 62/2/3 61/2/3
f 66/1/3 61/1/3 65/1/3
f 67/2/3 62/2/3 66/2/3
f 70/2/3 64/2/3 63/2/3
f 71/1/3 65/1/3 64/1/3
f 71/1/3 66/1/3 65/1/3
f 71/2/3 64/2/3 70/2/3
f 71/1/3 67/1/3 66/1/3
f 72/1/3 67/1/3 71/1/3
f 73/1/3 67/1/3 72/1/3
f 74/2/3 68/2/3 67/2/3
f 74/1/3 67/1/3 73/1/3
f 75/2/3 68/2/3 74/2/3
f 77/1/3 71/1/3 70/1/3
f 77/1/3 72/1/3 71/1/3
f 78/4/3 73/4/3 72/4/3
f 78/1/3 72/1/3 77/1/3
f 79/1/3 75/1/3 74/1/3
f 79/4/3 73/4/3 78/4/3
f 79/1/3 74/1/3 73/1/3
f 80/1/3 75/1/3 79/1/3
f 81/1/3 79/1/3 78/1/3
f 82/1/3 79/1/3 81/1/3
f 83/2/3 70/2/3 69/2/3
f 84/1/3 77/1/3 70/1/3
f 84/2/3 70/2/3 83/2/3
f 85/4/3 78/4/3 77/4/3
f 85/1/3 77/1/3 84/1/3
f 86/1/3 81/1/3 78/1/3
f 86/4/3 78/4/3 85/4/3
f 87/4/3 82/4/3 81/4/3
f 87/1/3 81/1/3 86/1/3
f 88/1/3 79/1/3 82/1/3
f 88/4/3 80/4/3 79/4/3
f 89/1/3 75/1/3 80/1/3
f 89/4/3 80/4/3 88/4/3
f 90/2/3 76/2/3 75/2/3
f 90/1/3 75/1/3 89/1/3
f 91/2/3 76/2/3 90/2/3
f 92/3/3 84/3/3 83/3/3
f 93/1/3 85/1/3 84/1/3
f 93/3/3 84/3/3 92/3/3
f 93/1/3 86/1/3 85/1/3
f 94/1/3 86/1/3 93/1/3
f 95/4/3 87/4/3 86/4/3
f 95/1/3 86/1/3 94/1/3
f 96/4/3 82/4/3 87/4/3
f 96/4/3 87/4/3 95/4/3
f 96/1/3 89/1/3 88/1/3
f 96/1/3 88/1/3 82/1/3
f 96/1/3 90/1/3 89/1/3
f 97/1/3 90/1/3 96/1/3
f 98/3/3 91/3/3 90/3/3
f 98/1/3 90/1/3 97/1/3
f 99/3/3 91/3/3 98/3/3
f 100/3/3 94/3/3 93/3/3
f 101/1/3 95/1/3 94/1/3
f 101/3/3 94/3/3 100/3/3
f 101/1/3 97/1/3 96/1/3
f 101/1/3 96/1/3 95/1/3
f 102/1/3 97/1/3 101/1/3
f 103/1/3 97/1/3 102/1/3
f 104/3/3 98/3/3 97/3/3
f 104/1/3 97/1/3 103/1/3
f 105/3/3 98/3/3 104/3/3
f 106/3/3 102/3/3 101/3/3
f 107/1/3 103/1/3 102/1/3
f 107/3/3 102/3/3 106/3/3
f 108/3/3 104/3/3 103/3/3
f 108/1/3 103/1/3 107/1/3
f 109/3/3 104/3/3 108/3/3
f 110/3/3 108/3/3 107/3/3
f 111/3/3 108/3/3 110/3/3
f 112/2/4 113/2/4 115/2/4
f 115/2/4 113/2/4 116/2/4
f 114/2/4 115/2/4 119/2/4
f 115/1/4 116/1/4 120/1/4
f 119/2/4 115/2/4 120/2/4
f 116/2/4 117/2/4 121/2/4
f 120/1/4 116/1/4 121/1/4
f 121/2/4 117/2/4 122/2/4
f 118/2/4 119/2/4 125/2/4
f 119/1/4 120/1/4 126/1/4
f 120/1/4 121/1/4 126/1/4
f 125/2/4 119/2/4 126/2/4
f 121/1/4 122/1/4 126/1/4
f 126/1/4 122/1/4 127/1/4
f 127/1/4 122/1/4 128/1/4
f 122/2/4 123/2/4 129/2/4
f 128/1/4 122/1/4 129/1/4
f 129/2/4 123/2/4 130/2/4
f 125/1/4 126/1/4 132/1/4
f 126/1/4 127/1/4 132/1/4
f 127/4/4 128/4/4 133/4/4
f 132/1/4 127/1/4 133/1/4
f 129/1/4 130/1/4 134/1/4
f 133/4/4 128/4/4 134/4/4
f 128/1/4 129/1/4 134/1/4
f 134/1/4 130/1/4 135/1/4
f 133/1/4 134/1/4 136/1/4
f 136/1/4 134/1/4 137/1/4
f 124/2/4 125/2/4 138/2/4
f 125/1/4 132/1/4 139/1/4
f 138/2/4 125/2/4 139/2/4
f 132/4/4 133/4/4 140/4/4
f 139/1/4 132/1/4 140/1/4
f 133/1/4 136/1/4 141/1/4
f 140/4/4 133/4/4 141/4/4
f 136/4/4 137/4/4 142/4/4
f 141/1/4 136/1/4 142/1/4
f 137/1/4 134/1/4 143/1/4
f 134/4/4 135/4/4 143/4/4
f 135/1/4 130/1/4 144/1/4
f 143/4/4 135/4/4 144/4/4
f 130/2/4 131/2/4 145/2/4
f 144/1/4 130/1/4 145/1/4
f 145/2/4 131/2/4 146/2/4
f 138/3/4 139/3/4 147/3/4
f 139/1/4 140/1/4 148/1/4
f 147/3/4 139/3/4 148/3/4
f 140/1/4 141/1/4 148/1/4
f 148/1/4 141/1/4 149/1/4
f 141/4/4 142/4/4 150/4/4
f 149/1/4 141/1/4 150/1/4
f 142/4/4 137/4/4 151/4/4
f 150/4/4 142/4/4 151/4/4
f 143/1/4 144/1/4 151/1/4
f 137/1/4 143/1/4 151/1/4
f 144/1/4 145/1/4 151/1/4
f 151/1/4 145/1/4 152/1/4
f 145/3/4 146/3/4 153/3/4
f 152/1/4 145/1/4 153/1/4
f 153/3/4 146/3/4 154/3/4
f 148/3/4 149/3/4 155/3/4
f 149/1/4 150/1/4 156/1/4
f 155/3/4 149/3/4 156/3/4
f 151/1/4 152/1/4 156/1/4
f 150/1/4 151/1/4 156/1/4
f 156/1/4 152/1/4 157/1/4
f 157/1/4 152/1/4 158/1/4
f 152/3/4 153/3/4 159/3/4
f 158/1/4 152/1/4 159/1/4
f 159/3/4 153/3/4 160/3/4
f 156/3/4 157/3/4 161/3/4
f 157/1/4 158/1/4 162/1/4
f 161/3/4 157/3/4 162/3/4
f 158/3/4 159/3/4 163/3/4
f 162/1/4 158/1/4 163/1/4
f 163/3/4 159/3/4 164/3/4
f 162/3/4 163/3/4 165/3/4
f 165/3/4 163/3/4 166/3/4
f 170/2/5 168/2/5 167/2/5
f 171/3/5 169/3/5 168/3/5
f 171/2/5 168/2/5 170/2/5
f 172/3/5 169/3/5 171/3/5
f 177/2/5 174/2/5 173/2/5
f 178/2/5 174/2/5 177/2/5
f 179/3/5 176/3/5 175/3/5
f 180/3/5 176/3/5 179/3/5
f 185/2/5 182/2/5 181/2/5
f 186/2/5 182/2/5 185/2/5
f 187/3/5 184/3/5 183/3/5
f 188/3/5 184/3/5 187/3/5
f 193/2/5 190/2/5 189/2/5
f 194/2/5 190/2/5 193/2/5
f 195/3/5 192/3/5 191/3/5
f 196/3/5 192/3/5 195/3/5
f 197/2/6 198/2/6 201/2/6
f 201/2/6 198/2/6 202/2/6
f 199/3/6 200/3/6 203/3/6
f 203/3/6 200/3/6 204/3/6
f 205/2/6 206/2/6 209/2/6
f 209/2/6 206/2/6 210/2/6
f 207/3/6 208/3/6 211/3/6
f 211/3/6 208/3/6 212/3/6
f 213/2/6 214/2/6 217/2/6
f 217/2/6 214/2/6 218/2/6
f 215/3/6 216/3/6 219/3/6
f 219/3/6 216/3/6 220/3/6
f 221/2/6 222/2/6 224/2/6
f 222/3/6 223/3/6 225/3/6
f 224/2/6 222/2/6 225/2/6
f 225/3/6 223/3/6 226/3/6
